<?xml version="1.0" encoding="UTF-8" standalone="no"?>
<!DOCTYPE svg PUBLIC "-//W3C//DTD SVG 1.1//EN" "http://www.w3.org/Graphics/SVG/1.1/DTD/svg11.dtd">
<svg width="100%" height="100%" viewBox="0 0 1000 1000" version="1.1" xmlns="http://www.w3.org/2000/svg" xmlns:xlink="http://www.w3.org/1999/xlink" xml:space="preserve" xmlns:serif="http://www.serif.com/" style="fill-rule:evenodd;clip-rule:evenodd;stroke-linejoin:round;stroke-miterlimit:1.5;">
    <g id="Computer--101_1000" serif:id="Computer -101_1000" transform="matrix(1.943518,0,0,1.943518,-505.79714,-434.83221)">
        <g transform="matrix(1,0,0,1,-0,-19)">
            <path d="M729.25,555.583C740.84,555.583 750.25,562.026 750.25,578.583C750.25,595.141 729.25,629 729.25,629C729.25,629 708.25,595.141 708.25,578.583C708.25,562.026 717.66,555.583 729.25,555.583Z"/>
        </g>
        <g transform="matrix(1,0,0,1,0,-11)">
            <rect x="720.25" y="379.583" width="17" height="151"/>
        </g>
        <path d="M567.917,386.583L745.917,387.25C745.917,387.25 765.25,388.083 758.25,369.583L628.75,240.083C628.75,240.083 628.25,237.583 612.75,236.583L440.75,236.083C440.75,236.083 419.25,237.083 432.25,256.583L547.75,378.583C547.75,378.583 553.583,391.583 567.917,386.583Z"/>
        <g transform="matrix(1.020101,0,0,1,-15.067002,-6.666667)">
            <path d="M683.25,472.25L683.25,644.437C683.25,657.948 672.497,668.917 659.252,668.917L309.248,668.917C296.003,668.917 285.25,657.948 285.25,644.437L285.25,387.397C285.25,373.886 296.003,362.917 309.248,362.917L431.641,362.917" style="fill:none;stroke:black;stroke-width:6.11px;"/>
        </g>
        <g transform="matrix(1.023333,0,0,1,-14.609167,5)">
            <path d="M683.25,600.917L683.25,645.558C683.25,648.924 681.943,652.152 679.617,654.533C677.292,656.913 674.137,658.25 670.848,658.25L295.652,658.25C292.363,658.25 289.208,656.913 286.883,654.533C284.557,652.152 283.25,648.924 283.25,645.558L283.25,600.917L683.25,600.917Z"/>
        </g>
        <g transform="matrix(1,0,0,1,28.666664,151.66667)">
            <circle cx="451.25" cy="482.917" r="8" style="fill:white;"/>
        </g>
        <g transform="matrix(1,0,0,1,-28.833336,-14)">
            <path d="M615.25,739.917L400.25,739.917L454,689.917L561.5,689.917L615.25,739.917Z"/>
        </g>
        <path d="M684.75,409.417L684.75,451.417C684.75,451.417 685.25,460.417 674.25,461.417C663.25,462.417 533.917,462.75 533.917,462.75C533.917,462.75 520.75,469.917 508.75,451.917L433.25,363.417C433.25,363.417 424.25,361.417 431.75,343.917L454.75,311.917L534.75,397.417C534.75,397.417 543.75,409.917 563.75,409.417L684.75,409.417Z"/>
    </g>
</svg>
