<svg width="14" height="13" viewBox="0 0 14 13" fill="none" xmlns="http://www.w3.org/2000/svg">
<path d="M9.12172 4.41669C9.95796 4.41669 10.76 4.74593 11.3513 5.33198C11.9426 5.91803 12.2748 6.71289 12.2748 7.54169V11.1875H10.1727V7.54169C10.1727 7.26542 10.062 7.00047 9.8649 6.80512C9.6678 6.60977 9.40047 6.50002 9.12172 6.50002C8.84297 6.50002 8.57564 6.60977 8.37854 6.80512C8.18144 7.00047 8.07071 7.26542 8.07071 7.54169V11.1875H5.96867V7.54169C5.96867 6.71289 6.30087 5.91803 6.89218 5.33198C7.48349 4.74593 8.28548 4.41669 9.12172 4.41669Z" fill="white"/>
<path d="M3.86685 4.9375H1.76482V11.1875H3.86685V4.9375Z" fill="white"/>
<path d="M2.81583 3.37514C3.39629 3.37514 3.86685 2.90877 3.86685 2.33348C3.86685 1.75818 3.39629 1.29181 2.81583 1.29181C2.23537 1.29181 1.76482 1.75818 1.76482 2.33348C1.76482 2.90877 2.23537 3.37514 2.81583 3.37514Z" fill="white"/>
</svg>
